<svg xmlns="http://www.w3.org/2000/svg" viewBox="0 0 162 35">
                  <title>Acronis logo</title>
                  <path
                    fill="#363E4B"
                    d="M40 22.1c0 4.8 2.9 8.2 7.5 8.2 3.3 0 5.5-1.9 6.5-4.7h5c-1.4 5.5-5.6 9.2-11.5 9.2-7 0-12.3-5.4-12.3-12.6 0-7.2 5.3-12.8 12.3-12.8 5.9 0 10.3 3.5 11.5 9.2h-5c-1-2.9-3.2-4.7-6.5-4.7-4.6-.1-7.5 3.4-7.5 8.2zm28.1-10h-.2l-.3-2.4h-4.2v25.1h4.7V18.9c0-3.4 2.5-5.2 5.9-5.2.7 0 .9.1.9.1V9.2s-.3-.1-.9-.1c-1.4 0-4.1.6-5.9 3zm50.1-3c-4.2 0-6.7 1.8-7.8 3h-.2l-.3-2.4h-4.2v25.1h4.7V19c0-3.5 3.1-5.4 7-5.4 3.3 0 5.7 1.7 5.7 5.2v16h4.7V18.5c-.2-6.9-5-9.4-9.6-9.4zm15.4 25.7h4.7V9.7h-4.7v25.1zM101.1 22c0 7.2-5.3 12.7-12.4 12.7-7.1 0-12.4-5.5-12.4-12.7S81.5 9.3 88.6 9.3c7.1 0 12.5 5.5 12.5 12.7zm-4.9 0c0-4.7-3-8.2-7.6-8.2S81 17.3 81 22s3 8.2 7.6 8.2 7.6-3.4 7.6-8.2zm57.1-2.4c-4.6-1-4.4-2.2-4.4-3.2 0-1.2 1.4-2.8 3.6-2.8 1.9 0 3.8.9 3.8 4.1h4.5c.2-5.1-3.2-8.3-8.3-8.3-4.6 0-8.3 3.2-8.3 7.1 0 5 3.9 6.5 8.1 7.5 4.5 1 4.9 2.4 4.9 3.4 0 1.9-1.9 3.5-4.6 3.5-1.9 0-4.8-1.2-4.8-4.9h-4.5c-.3 5.7 3.8 9 9.3 9 5.2 0 9.3-3.4 9.3-7.9.1-5-4.4-6.6-8.6-7.5zM19.7.1l15.4 34.7h-4.9l-3-7H7.9l-3 7H0L15.4.1h4.3zM24 20.7H11.1l-1.4 3.2h15.8L24 20.7zm-1.7-3.9L17.9 6.7l-.2-.7h-.2l-.2.6-4.4 10.1h9.4z"
                  ></path>
                </svg>