<svg
                  version="1.1"
                  viewBox="0 0 491.79 184.3"
                  xmlns="http://www.w3.org/2000/svg"
                  xmlnsXlink="http://www.w3.org/1999/xlink"
                >
                  <title>Cadbury logo</title>
                  <g transform="translate(-42.381 -42.17)">
                    <g shapeRendering="auto">
                      <path
                        fill="#363E4B"
                        d="m495.17 225.93c-1.6471-0.57221-3.465-2.5689-4.0101-4.4046-2.1876-7.3663 2.5036-21.101 15.999-46.84 2.5075-4.7825 4.5071-8.9564 4.4438-9.2753-0.0836-0.42053-1.1664 0.50768-3.9405 3.3779-4.9007 5.0706-8.7066 8.1274-12.574 10.099-2.862 1.4592-3.2964 1.5815-6.0938 1.7152-3.765 0.18001-5.3788-0.36632-7.3279-2.4808-2.3735-2.575-3.5395-6.0988-3.8894-11.754l-0.21423-3.4632-0.6965 0.96016c-3.6808 5.0742-8.845 10.467-12.908 13.48-5.244 3.8882-9.4837 5.4642-14.669 5.453-2.9458-6e-3 -3.3986-0.0975-5.415-1.0902-1.2784-0.62935-2.5636-1.5594-3.0672-2.2196-2.7942-3.6634-2.8282-10.999-0.0896-19.285 1.0703-3.2383 3.9997-9.6239 5.6318-12.276 0.54336-0.88308 0.98793-1.6569 0.98793-1.7196 0-0.0627-1.7625-0.0485-3.9167 0.0314-2.9299 0.10878-4.3326 0.0159-5.5678-0.36879-0.90814-0.28282-1.6733-0.48221-1.7004-0.4431-0.027 0.0391-0.69116 1.7961-1.4757 3.9044-2.8984 7.7891-7.6691 16.221-11.903 21.037-5.9784 6.8006-11.975 9.8782-18.604 9.5474-3.6338-0.1813-6.1561-1.0705-8.24-2.9048-1.5581-1.3715-3.2935-4.2809-3.8881-6.5182l-0.3558-1.339-3.4247 3.3501c-5.3249 5.2089-10.42 8.0009-16.11 8.8285-5.3726 0.78138-9.3485-0.89699-11.886-5.0177-3.0891-5.0158-2.7157-14.112 0.93473-22.767 0.62523-1.4824 1.1368-2.736 1.1368-2.7856 0-0.0497-0.9375 0.4439-2.0833 1.0968-3.3646 1.9171-7.5135 3.7866-11.056 4.9819l-3.3061 1.1155-1.0516 2.7949c-3.7547 9.9793-10.619 18.218-18.282 21.943-3.3289 1.618-5.59 2.0787-9.3867 1.9126-2.4556-0.1074-3.3936-0.30693-4.894-1.041-2.0741-1.0148-4.5161-3.4293-5.5826-5.5198-2.4465-4.7955-2.4564-12.789-0.0273-22.047l0.65591-2.5-0.90957-0.64126c-2.2494-1.5859-4.819-4.6164-5.971-7.0422-2.2924-4.8272-2.2585-9.5957 0.10333-14.524 2.9415-6.1379 10.565-10.616 18.095-10.631l2.53-5e-3 2.5-4.3902c2.9457-5.173 8.2002-13.256 11.058-17.01 1.589-2.0874 1.8662-2.6115 1.2834-2.4265-1.2288 0.39-17.179 0.29106-22.008-0.13652-5.6398-0.49934-14.15-1.8055-18.453-2.8324l-3.2864-0.78421 0.19913 1.2453c1.0634 6.6504 1.093 20.519 0.0596 28.01-2.3959 17.369-7.9196 33.257-15.512 44.615-2.9493 4.4122-7.5239 9.4639-10.802 11.928-7.8076 5.8699-17.787 7.1964-23.672 3.1468-3.2164-2.2129-5.7926-6.5822-6.5109-11.043-0.18324-1.1378-0.38549-2.121-0.44947-2.185-0.064-0.064-1.0816 1.2619-2.2614 2.9464-2.6944 3.847-7.4842 8.762-10.298 10.567-7.2564 4.6548-14.736 3.1156-17.946-3.6928-1.276-2.7066-1.7343-4.9446-1.7343-8.4701v-2.8214l-1.8799 2.2545c-7.6341 9.1554-16.194 15.21-23.235 16.437-5.4003 0.94042-10.33-1.0518-12.699-5.1318-1.7835-3.0719-2.3484-8.7115-1.3741-13.717 0.24979-1.2833 0.42893-2.3612 0.39809-2.3952-0.0308-0.034-1.6282 1.366-3.5498 3.1112-16.09 14.614-36.493 24.423-56.827 27.322-4.8094 0.68559-15.311 0.77586-19.5 0.16761-19.033-2.7636-31.489-10.706-37.836-24.128-3.0382-6.4241-4.2775-12.667-4.2836-21.578-0.0047-6.8215 0.48767-10.932 2.0979-17.514 6.7786-27.708 29.196-55.926 57.938-72.929 18.522-10.957 39.294-16.901 59.019-16.888 22.545 0.01457 35.867 10.204 37.764 28.883 1.4989 14.755-6.0794 31.696-20.412 45.63-14.767 14.357-33.373 23.61-50.653 25.191-7.2838 0.66653-13.329-0.31685-18.968-3.0858-3.437-1.6876-7.264-5.3242-8.9092-8.4658-3.259-6.2232-3.4241-15.204-0.41999-22.834 2.805-7.1241 6.8824-12.935 13.565-19.331 8.8788-8.4981 19.349-13.943 29.479-15.33 4.269-0.5845 6.2705 0.02473 5.8312 1.7749-0.15476 0.6166-0.79894 1.0045-3.1206 1.8789-3.7744 1.4216-11.298 5.2249-14.643 7.4021-6.0574 3.9432-11.842 9.2645-15.206 13.987-4.8708 6.8395-7.1516 15.506-5.7799 21.963 1.9038 8.9622 8.8814 13.773 19.141 13.197 15.34-0.86129 33.382-10.326 44.807-23.506 6.7477-7.7837 11.011-16.193 12.809-25.268 0.88038-4.4416 0.8-12.025-0.16879-15.923-1.8906-7.6086-5.9415-12.775-12.553-16.01-5.0742-2.483-7.7866-2.984-16-2.9549-7.4664 0.02643-11.065 0.42192-18.102 1.9892-22.638 5.0426-44.935 19.953-60.3 40.323-10.255 13.596-17.086 29.639-19.254 45.218-1.8573 13.35-0.30704 23.212 4.9036 31.194 5.3854 8.2496 14.075 13.761 24.598 15.602 3.823 0.66873 12.418 0.74834 16.987 0.15736 25.413-3.2868 51.113-18.805 69.833-42.166 3.8934-4.8587 10.197-11.266 13.667-13.891 8.8789-6.7171 15.62-9.2456 22.14-8.3044 8.2066 1.1846 11.894 6.8635 10.223 15.744-0.30019 1.5956-1.8899 7.0354-3.5327 12.088-3.5988 11.069-4.4254 14.779-4.2735 19.177 0.1268 3.6722 0.83654 5.4412 2.5954 6.4689 5.6962 3.3283 14.308-5.9697 21.797-23.533 5.2224-12.248 12.962-20.603 21.791-23.525 3.3081-1.0948 9.1302-1.2502 12.141-0.32419 2.2986 0.70697 5.2302 2.645 6.5695 4.343 1.163 1.4745 1.0492 1.6691 2.0063-3.4292 1.0584-5.6378 1.4857-11.058 1.2738-16.161-0.27433-6.6074-1.32-11.785-3.9056-19.339-0.56479-1.65-1.1143-3.9937-1.2212-5.2082-0.34698-3.9431 1.4974-5.9585 5.453-5.9585 2.4312 0 4.6713 0.63387 12.245 3.465 10.884 4.0683 17.719 5.7686 26.364 6.5578 4.6649 0.42586 13.232 0.2444 18.333-0.38833l2.9995-0.37205 3.6671-3.5493c6.7164-6.5006 12.935-10.629 16.532-10.974 1.4547-0.13978 1.7026-0.05585 2.6587 0.90024 0.98776 0.98778 1.0455 1.1766 0.9144 2.9895-0.36347 5.0253-5.7242 10.884-12.544 13.709-2.1907 0.90746-2.2895 1.0041-6.0045 5.876-2.0775 2.7244-5.4706 7.5034-7.5402 10.62-3.7453 5.6399-9.0013 14.176-8.7923 14.279 4.7199 2.3292 7.7072 4.7222 10.155 8.1348 3.2586 4.5427 4.7879 9.6735 4.7879 16.064v3.6723l2.75-1.0082c8.5589-3.138 15.422-7.3693 20.806-12.826 4.7539-4.8192 7.4286-6.226 10.32-5.4278 1.6305 0.45021 2.2605 1.5822 2.0183 3.6266-0.28787 2.4305-1.8051 5.3201-5.5879 10.642-3.8497 5.4161-5.633 8.5622-6.8028 12.002-1.0247 3.0126-1.6642 7.4392-1.364 9.4409 0.69817 4.6557 4.8401 6.1468 10.008 3.6027 4.4578-2.1945 11.673-10.093 12.516-13.701 2.1017-8.995 9.6512-20.958 14.907-23.622 3.1271-1.585 5.9905-0.37914 6.3339 2.6673 0.4339 3.8497-3.2529 11.114-9.3797 18.481-1.6771 2.0166-2.5238 3.3343-2.6561 4.1336-0.90394 5.4622 1.5819 11.687 5.0107 12.548 2.3506 0.58996 5.9212-0.7276 9.1211-3.3656 5.1513-4.2468 10.847-13.134 14.495-22.617l1.2596-3.2744-1.1909-1.2256c-1.9723-2.0298-2.8898-4.4338-2.8936-7.5818-8e-3 -6.4593 2.9388-10.31 7.889-10.31 2.3699 0 3.5587 0.65972 4.5473 2.5237 0.52177 0.98368 0.5803 1.6772 0.41997 4.9763-0.10247 2.1083-0.2778 4.3073-0.38967 4.8865l-0.20333 1.0532 2.5809 0.57419c3.0067 0.66893 7.1096 0.52662 9.4859-0.32904 0.825-0.29706 2.821-1.3006 4.4357-2.2301 3.6389-2.0948 5.0598-2.3571 6.4208-1.1853 0.92956 0.80029 0.97596 0.96755 0.95783 3.4525-0.023 3.1585-0.4472 4.18-4.8391 11.654-5.5982 9.5265-7.7089 14.903-7.7747 19.805-0.0393 2.9276 0.51927 4.0974 2.3148 4.8477 1.8021 0.75295 3.4538 0.57595 5.9942-0.64234 7.6235-3.656 17.314-15.061 23.316-27.44 2.9042-5.9901 4.2992-8.2457 6.6136-10.693 1.9372-2.0483 3.0873-2.753 4.493-2.753 2.8869 0 2.9624 4.0872 0.2001 10.833-4.6017 11.238-5.8236 15.351-5.895 19.843-0.0383 2.411 0.0796 3.0923 0.77563 4.4827 0.45147 0.90177 1.2215 1.9303 1.7112 2.2857 4.7867 3.4736 17.125-7.5952 30.779-27.611 5.7645-8.4508 7.206-9.8333 10.253-9.8333 2.1021 0 2.9116 1.0124 2.9116 3.6416 0 4.2306-1.4367 7.805-8.6517 21.525-15.51 29.494-22.389 45.013-24.897 56.167-0.37663 1.6751-0.5713 4.1053-0.58996 7.365-0.0207 3.5999-0.1468 5.0085-0.4853 5.4167-0.52184 0.62922-2.6171 0.70468-4.2092 0.15159zm-173.47-49.771c3.6088-1.2297 7.9332-6.0685 10.988-12.295 0.90723-1.8493 1.6495-3.4526 1.6495-3.563 0-0.11036-1.9875-0.29763-4.4167-0.41615-4.2687-0.20827-8.344-0.77203-11.263-1.5581-0.77272-0.20807-1.5264-0.25489-1.6748-0.10405-0.14845 0.15085-0.57364 1.7743-0.94486 3.6076-1.5002 7.4087-1.2497 11.684 0.80479 13.739 1.2576 1.2576 2.467 1.4045 4.8574 0.59zm-64.363-1.5758c2.8653-1.3537 7.4735-5.9432 10.295-10.253 3.6208-5.5313 7.2303-13.091 9.8379-20.604l1.1931-3.4376-0.6386-1.2518c-0.82291-1.613-3.0226-3.5925-4.9794-4.481-2.1558-0.97875-6.1688-0.9392-8.7005 0.0857-9.345 3.7833-17.622 18.065-17.785 30.689-0.0541 4.1804 0.57295 6.6055 2.1848 8.4498 2.0887 2.3899 4.7152 2.6353 8.5936 0.80295zm-72.667-0.96364c6.5845-2.8894 17.038-15.46 23.346-28.074 2.9391-5.8774 4.3598-10.161 4.5749-13.796 0.2473-4.1776-0.77515-5.7529-3.7339-5.7529-5.3486 0-15.022 8.8016-23.213 21.12-7.9073 11.893-11.319 23.02-7.9835 26.038 1.7211 1.5576 4.1514 1.7186 7.0095 0.46437zm151.52-20.342c0.6399-0.65489 1.2437-5.76 0.9904-8.3744-0.4811-4.9662-2.2245-8.6937-5.6852-12.155-1.3288-1.3292-2.5931-2.4167-2.8096-2.4167-0.76674 0-10.015 20.276-10.015 21.957 0 0.27972 2.204 0.86732 5.6667 1.5108 0.45833 0.0852 3.2145 0.10313 6.1248 0.0399 3.8579-0.0838 5.4097-0.23594 5.7279-0.56154zm-20.272-22.016 2.027-4.2357-1.0536 0.18294c-4.0149 0.69712-7.2958 3.1215-9.0372 6.6778-1.7323 3.5378-1.5153 8.0718 0.54145 11.315l1.0013 1.5788 2.2471-5.6415c1.2359-3.1028 3.1592-7.5476 4.274-9.8773z"
                      ></path>
                    </g>
                  </g>
                </svg>