<svg viewBox="0 0 400 115" xmlns="http://www.w3.org/2000/svg">
                  <title>ComAve Logo</title>
                  <path
                    fillRule="evenodd"
                    clipRule="evenodd"
                    d="M56.3078 1.91616C51.8826 -0.63872 46.4306 -0.638718 42.0054 1.91616L7.1512 22.0392C2.72602 24.5941 0 29.3157 0 34.4255V74.6716C0 79.7814 2.72603 84.503 7.1512 87.0579L42.0054 107.181C46.4306 109.736 51.8826 109.736 56.3078 107.181L91.162 87.0578C95.5871 84.503 98.3132 79.7814 98.3132 74.6716V34.4255C98.3132 29.3157 95.5871 24.5941 91.162 22.0392L56.3078 1.91616ZM78.5157 59.8996C78.6978 58.8763 77.8852 57.9701 76.8458 57.9701H61.315C60.5487 57.9701 59.8846 58.4767 59.5777 59.1789C57.8288 63.1805 53.8356 65.977 49.1892 65.977C42.9308 65.977 37.8573 60.9035 37.8573 54.6451C37.8573 48.3867 42.9308 43.3132 49.1892 43.3132C53.8357 43.3132 57.8289 46.1097 59.5778 50.1115C59.8847 50.8137 60.5487 51.3203 61.3151 51.3203H76.8458C77.8852 51.3203 78.6979 50.4141 78.5157 49.3908C76.0339 35.445 63.848 24.8565 49.1891 24.8565C32.7373 24.8565 19.4005 38.1933 19.4005 54.6451C19.4005 71.0968 32.7373 84.4336 49.1891 84.4336C63.8479 84.4336 76.0338 73.8453 78.5157 59.8996Z"
                    fill="#363E4B"
                  ></path>
                  <path
                    d="M151.078 80.8191H131.847C124.79 80.8191 121.998 77.412 123.317 70.3705L129.055 38.2677C130.373 31.1505 134.406 27.8191 141.463 27.8191H160.694C167.751 27.8191 170.465 31.1505 169.224 38.2677L167.518 47.5048H154.646L156.041 40.1605C156.196 39.0248 155.886 38.7219 154.801 38.7219H143.246C142.238 38.7219 141.773 39.0248 141.618 40.1605L136.5 68.4777C136.267 69.5377 136.577 69.9162 137.663 69.9162H149.14C150.303 69.9162 150.691 69.5377 150.923 68.4777L152.242 61.0577H165.114L163.408 70.3705C162.168 77.412 158.058 80.8191 151.078 80.8191Z"
                    fill="#363E4B"
                  ></path>
                  <path
                    d="M184.319 39.9334H200.216C206.885 39.9334 209.445 43.0377 208.204 49.7005L204.404 71.0519C203.163 77.7148 199.519 80.8191 192.849 80.8191H176.952C170.283 80.8191 167.724 77.7148 168.965 71.0519L172.842 49.7005C174.005 43.0377 177.65 39.9334 184.319 39.9334ZM192.617 69.3862L195.874 51.3662C196.106 50.1548 195.796 49.7762 194.555 49.7762H186.491C185.25 49.7762 184.862 50.1548 184.629 51.3662L181.372 69.3862C181.14 70.5219 181.45 70.9762 182.613 70.9762H190.756C191.919 70.9762 192.462 70.5219 192.617 69.3862Z"
                    fill="#363E4B"
                  ></path>
                  <path
                    d="M262.841 39.4791C270.751 39.4791 273.31 42.5834 272.07 49.3977L266.409 80.8191H254.156L259.429 51.5934C259.662 50.2305 259.274 49.8519 257.723 49.8519C254.389 49.8519 251.985 50.5334 248.805 52.1234L243.61 80.8191H231.435L236.708 51.5934C236.941 50.2305 236.553 49.8519 235.002 49.8519C231.59 49.8519 229.264 50.5334 226.084 52.1234L220.888 80.8191H208.636L216.003 39.9334H228.255L227.325 45.2334C230.272 42.2048 233.374 39.4791 240.043 39.4791C246.401 39.4791 249.271 41.4477 249.581 45.7634C252.373 42.4319 256.172 39.4791 262.841 39.4791Z"
                    fill="#363E4B"
                  ></path>
                  <path
                    d="M306.54 69.6134H289.79L284.827 80.8191H271.101L296.77 27.8191H314.373L321.042 80.8191H307.549L306.54 69.6134ZM305.687 58.9377L303.826 38.192L294.598 58.9377H305.687Z"
                    fill="#363E4B"
                  ></path>
                  <path
                    d="M362.632 39.9334L342.082 80.8191H328.822L323.006 39.9334H335.568L337.274 69.8405L349.837 39.9334H362.632Z"
                    fill="#363E4B"
                  ></path>
                  <path
                    d="M376.237 39.9334H391.591C398.26 39.9334 400.897 43.0377 399.734 49.7005L397.252 63.4805H374.453L373.29 69.9919C373.058 71.1277 373.368 71.5819 374.531 71.5819H381.975C383.139 71.5819 383.681 71.1277 383.914 69.9919L384.379 67.3419H396.554L395.856 71.0519C394.616 77.7148 390.893 80.8191 384.224 80.8191H368.87C362.201 80.8191 359.642 77.7148 360.883 71.0519L364.76 49.7005C365.923 43.0377 369.568 39.9334 376.237 39.9334ZM386.318 56.212L387.326 50.7605C387.559 49.5491 387.171 49.1705 386.008 49.1705H378.563C377.4 49.1705 376.935 49.5491 376.702 50.7605L375.772 56.212H386.318Z"
                    fill="#363E4B"
                  ></path>
                </svg>