<svg xmlns="http://www.w3.org/2000/svg" viewBox="0 0 113 47">
                  <title>Premier League logo</title>
                  <path
                    fill="#363E4B"
                    fillRule="evenodd"
                    d="M47.1 15.9h1.6c1.7 0 3.2-.6 3.2-2.5 0-1.2-.7-2.3-2.8-2.4h-1.9c-.1-.1-.1 4.9-.1 4.9zm0 2.8V24H44V8h4.2c2.7 0 3.6.4 4.8 1.1 1.2.8 2 2.5 2 4.1 0 3.7-2.3 5.5-6.6 5.5h-1.3zM62 15.6c-1.8-.5-3.2.4-3.3 2.1V23H56v-9.9h2.3l.3 1.5c.7-1.3 1.7-1.8 3.3-1.5v2.5h.1zm3 1.8h5.2c-.2-1-1.2-2-2.6-2-1.4 0-2.5 1-2.6 2zm7.9 2H65c0 1.1 1.2 2.2 2.7 2.2 1.7-.1 2.4-.7 3-1.3l1.7 1.7c-.7.6-2 1.8-4.4 2-3.7 0-5.9-2.4-6-5.4.1-3.3 2.6-5.6 5.7-5.6 2 0 4 1.2 4.8 3 .5 1.1.6 2.4.4 3.4zM86.3 24v-6.3c-.1-1.4-1-2-1.7-1.9-.9.1-1.7.8-1.7 2V24h-2.7v-6.8c-.2-1-1-1.5-1.7-1.5-.8.1-1.6.6-1.7 1.6V24H74V13.3h2.5l.3 1.4c.7-1.1 1.4-1.6 2.6-1.7 1.6 0 2.3.8 3 1.7.8-1.2 1.6-1.7 3.2-1.7 2.3.1 3.6 2.1 3.5 4.3V24h-2.8zM91 23h3V13h-3v10zm-47 3h3.2v12.2H54V41H44V26zm27.6 7.6c-1.6.1-2.6 1.1-2.7 2.8 0 .8.3 1.6.9 2.2.6.5 1.2.7 1.9.7 1.5-.1 2.5-1.3 2.5-2.7.1-1.7-.9-2.9-2.6-3zm2.9 8.1l-.3-1.3c-1 1.2-2.1 1.7-3.5 1.6-1.3-.1-2.6-.7-3.5-2-.8-1-1.2-2.3-1.2-3.7 0-1.4.7-2.9 1.8-4 .9-.8 2.1-1.3 3.4-1.3 1.2 0 2.2.4 3 1.5l.3-1.4H77v10.6h-2.5zM91 31h2.9v5.2c0 .7-.1 1.6.4 2.2.5.6 1 .8 1.5.9.8 0 1.3-.2 1.6-.5.7-.6.8-1.6.8-2.5V31h2.8v6.2c0 1.4-.5 2.5-1.5 3.5-.9.9-2.2 1.3-3.7 1.3-1.6-.1-2.5-.5-3.4-1.4-.7-.7-1.4-2-1.4-3.6v-6zm2-23c.6 0 1 .2 1.4.6.4.4.6.8.6 1.4s-.2 1-.6 1.4c-.4.4-.8.6-1.4.6-.5 0-1-.2-1.4-.6-.4-.4-.6-.9-.6-1.4 0-.6.2-1 .6-1.4.4-.4.8-.6 1.4-.6m20 7.6c-1.8-.5-3.2.4-3.3 2.1V23H107v-9.9h2.3l.3 1.5c.7-1.3 1.7-1.8 3.3-1.5v2.5h.1zm-15 1.8h5.2c-.2-1-1.2-2-2.6-2-1.4 0-2.5 1-2.6 2zm7.9 2H98c0 1.1 1.2 2.2 2.7 2.2 1.7-.1 2.4-.7 3-1.3l1.7 1.7c-.7.6-2 1.8-4.4 2-3.7 0-5.9-2.4-6-5.4.1-3.3 2.6-5.6 5.7-5.6 2 0 4 1.2 4.8 3 .5 1.1.6 2.4.4 3.4zM83.6 33.6c-1.6.1-2.6 1.1-2.7 2.8 0 .8.3 1.6.9 2.2.6.5 1.2.7 1.9.7 1.5-.1 2.5-1.3 2.5-2.7.1-1.6-.9-2.9-2.6-3zM80 42.8c1 .9 1.8 1.3 2.4 1.4 2 .3 4.1-.4 3.7-3.4-.5.6-1.1.9-1.6 1.1-2.5.5-4.2-.4-5.3-1.8-.8-1-1.2-2.3-1.2-3.7 0-1.5.7-2.9 1.8-4 .9-.8 2.1-1.3 3.4-1.3 1.2 0 2.2.4 3 1.5l.3-1.4H89V41c.1 4.7-3.2 6.1-5.9 6.1-1.6 0-3.3-.7-4.7-1.9l1.6-2.4zm25-8.4h5.2c-.2-1-1.2-2-2.6-2-1.4 0-2.5 1-2.6 2zm7.9 2H105c0 1.1 1.2 2.2 2.7 2.2 1.7-.1 2.4-.7 3-1.3l1.7 1.7c-.7.6-2 1.8-4.4 2-3.7 0-5.9-2.4-6-5.4.1-3.3 2.6-5.6 5.7-5.6 2 0 4 1.2 4.8 3 .5 1.1.6 2.4.4 3.4zm-55.9-2h5.2c-.2-1-1.2-2-2.6-2-1.4 0-2.5 1-2.6 2zm7.9 2H57c0 1.1 1.2 2.2 2.7 2.2 1.7-.1 2.4-.7 3-1.3l1.7 1.7c-.7.6-2 1.8-4.4 2-3.7 0-5.9-2.4-6-5.4.1-3.3 2.6-5.6 5.7-5.6 2 0 4 1.2 4.8 3 .5 1.1.6 2.4.4 3.4zM5.1 41c-.7-.9-1-1.9-1.3-2.9-.7-2.6-.9-5.4-.7-8.1 0-.4.1-.8.1-1.2 0 0 0-.1-.1-.2-1 .2-2 .7-3.1.9-.1-.7-.1-1.3 0-2 .4-2.8 1.5-5.4 3-7.8.1-.1.2-.3.3-.4v-.2l-1.7-.4c.4-.9.9-1.7 1.5-2.4 1.5-2 3.3-3.8 5.3-5.2.3-.2.6-.5.9-.8.5-.5 1-.8 1.7-1 .3-.1.7-.2 1-.3 2.7-1.3 5.6-2 8.5-2 2.8 0 5.5.4 8 1.8.6.4 1.2.8 1.8 1.3-1.6-.6-3.1-1.3-4.8-1.7-.2.4.1.9 0 1.4-.4-.5-.8-.9-1.2-1.3-.2-.3-.5-.5-.9-.5-3.5-.4-6.8.1-10.1 1.5-.1 0-.1.1-.2.1l-.1.1 1 1.4v.1c-.2-.1-.3-.2-.5-.2-.5-.1-.9-.3-1.4-.3-1-.1-1.8.5-2.2 1.5-.4.9-.3 1.9 0 2.8.1.4.2.7.4 1.2-1.4-.9-1.7-2.2-1.8-3.7-1.8 1.5-3.4 3.1-4.6 5.1.7.3 1.5.3 2.3.5-2.4 2.7-3.9 5.8-4.6 9.4.7.1 1.2-.3 1.7-.4.6-.1 1.1-.3 1.8-.5-.9 4.2-1 8.3.4 12.4 1.3-1 2.3-2.2 3.2-3.4.9-1.2 1.7-2.5 2.7-3.8.8 2 1.1 4 1.2 6.1.1 2.1-.2 4.1-.6 6.3 2.5 1.2 5.1 1.6 7.8 1.2 2.7-.4 5.1-1.5 7.3-3.1l.7 2.5c.2-.1.4-.2.5-.3 3-2.4 4.8-5.5 5.4-9.3.1-.8.2-1.7.4-2.6l1.8 1.9c.8-2.4 1.1-4.7.9-7.1-.1-2.4-.7-4.7-1.7-6.9 1 1.3 1.8 2.7 2.3 4.2.9 2.9.8 5.8.3 8.7-.2 1.1-.6 2.1-.8 3.2-.1.2-.2.5-.3.8L35 35.7c-.7 3.2-2 6-4.2 8.3-1.1 1.2-2.5 2.2-3.9 3-.2-.9-.4-1.7-.7-2.6-3.6 2.1-7.4 2.9-11.4 2.1-1.6-.3-3-.8-4.4-1.7.7-3.2 1.1-6.3.5-9.7-.9 1.1-1.8 2.2-2.7 3.2-.9 1.1-2 2-3.1 2.7"
                  ></path>
                  <path
                    fill="#363E4B"
                    fillRule="evenodd"
                    d="M22.3 17.3l2.7 2.6v.1c-.4-.1-.7-.2-1.1-.2-1 0-2.1-.1-3.1-.1-.6 0-1.2 0-1.8-.1-1.9-.2-3.2-1.4-3.6-3.3l-1.4-.2c.8-1 1.7-1.5 2.9-2l-.9-.8c.2-.2.5-.4.7-.5 1.5-1 3.1-1.5 4.9-1.8.3 0 .6 0 .9.2 1 .5 1.9 1.1 2.9 1.7.2.1.4.2.6.4.5-.5.4-1.2.7-1.8.3.1.6.3.9.4 1.3.7 2.6 1.6 3.7 2.6 1.4 1.2 2 2.6 1.6 4.4-.6-.3-.9-.9-1.4-1.3l.5-.5c0-.6-.3-1.1-.8-1.5l-1.3.7-1.5-.8-.1.1c.7.7 1 1.7 1.8 2.3.5.4 1 .8 1.5 1.3l.4.4c-1.7-.4-3.3-.4-4.9.1L24.4 17c-.2-.6.2-1.1.5-1.7-.6 0-.6 0-1.7.6l-2.9-1.3c-1.3.1-2.4.6-3.3 1.4l.3.3c1 .7 2.1.9 3.4.9.5 0 1 0 1.6.1M8 4.2c1.1.5 2.1 1.3 3.2 2.1-.2-1.6-.5-3.1-.7-4.7L15.4 5l1.7-5 2.7 4.5c1.4-1.4 2.6-2.9 4-4.4.1 1.6.2 3.1.4 4.7 1-1.1 1.7-2.1 2.8-2.8-.6 1.6-.9 3.3-1.1 5.1-5.5-1.5-10.7-.8-15.7 1.9L8 4.2M22 24c1.3-1.3 4-2.7 5.5-3l2.4 1.4V25c-1.8 1.3-3.4 2.9-5.9 3l-2-4m7.7 10l-.4-2.7c-1 .7-1.9 1.3-3.1 1.5L25 30.4c1.6-.4 2.8-1.4 4.1-2.3L31 28c.5.5.8 1.1 1 1.7.1.2.1.4 0 .7-.3 1.4-.9 2.6-2 3.5-.1 0-.2 0-.3.1m1.3-9.4v-2.5l1.4-1.2c.7 2 .8 3.9.1 6-.3-.5-.5-.9-.7-1.2-.2-.3-.5-.7-.8-1.1"
                  ></path>
                </svg>