<svg
                  version="1.1"
                  viewBox="0 0 2667.1 957.12"
                  xmlSpace="preserve"
                  xmlns="http://www.w3.org/2000/svg"
                >
                  <title>PRIME Hydration logo</title>
                  <path
                    d="m212.94 197.4-25.482 20.739c-1.4653 2.3599-2.1664 5.0851-2.9277 7.7303-2.0333 7.9198-3.4071 16.388-4.4471 24.49-4.0946 32.769-5.482 66.441-6.6073 99.44-1.416 43.239-1.7161 89.636-1.7148 132.98 0.0853 55.02 0.72172 111.29 3.539 166.18 1.26 21.766 2.7818 44.615 5.6151 66.205 1.792 10.861 2.8267 22.138 7.1346 32.341l27.655 21.759h5.9256c-2.6653-3.6439-3.6032-8.2595-4.9139-12.511-1.14-4.3332-2.0834-8.8568-2.8847-13.205-1.6413-8.3687-2.9575-18.166-4.0468-26.713-8.9998-77.501-9.6128-155.72-10.146-233.65 0.0773-53.777 0.78798-108.19 3.6346-161.9 1.7013-29.685 3.8387-60.188 8.4412-89.608l1.4961-8.8826 1.8554-8.822 1.164-4.3574 0.58785-2.1757c0.95598-2.8426 1.8152-5.7656 3.3711-8.3455 0.40266-0.63732 0.79465-1.3117 1.4413-1.701h-8.6911zm8.6911 0c-0.33733 0.17599-0.52372 0.53238-0.78905 0.78704-2.1266 3.4719-3.1059 7.6444-4.0272 11.586-2.2253 9.7544-3.7174 21.118-4.7187 31.033-3.2879 32.414-4.5616 66.069-5.5349 98.62-1.3653 46.968-1.5953 96.638-1.6153 143.77 0.23733 71.484 0.52466 144.25 5.3925 215.53 1.0373 14.802 2.3313 29.978 4.5819 44.647 0.65865 4.5479 1.4722 8.7971 2.3789 13.248 1.1146 4.3022 1.8413 8.9034 4.3319 12.654h46.231c4.1835 0 7.2794-21.095 9.537-55.735h18.896c-9.0662-67.988-11.021-136.73-11.982-205.25-0.38266-87.876 0.77278-176.77 11.191-264.07-1.4173 19.532-2.4205 39.074-3.0898 58.633-2.5813 67.82-3.0785 137.45-2.8945 205.39 0.63331 68.318 1.3648 137.18 6.7752 205.29v1e-3c1.1856 32.393 7.5057 41.874 7.5057 41.874h23.921c-5.5359-21.963-7.3132-45.822-9.6384-68.373-3.8612-45.908-5.5012-91.967-6.4158-138.01-1.1253-68.777-0.85571-138.49 2.0176-207.19 1.548-34.351 3.6211-69.182 7.949-103.33 1.4706-11.412 3.0345-22.879 6.0877-33.99h-23.527c-6.2225 0-8.6911 39.702-8.6911 39.702h-18.66c-2.2042-29.509-5.1496-46.811-8.9822-46.811h-46.231zm106.09 7.1092c-1.3626 5.5919-2.0652 11.315-2.8358 17.001-1.4013 11.178-2.4267 23.161-3.244 34.33-6.0252 97.043-5.542 195.85-4.9393 293.11 0.73864 56.963 1.6453 115.54 6.4452 172.3 1.1226 11.229 2.1767 23.122 4.574 34.163 6.1225-6.9145 6.1717-35.487 6.1717-35.487h76.611v-482.59h-76.611c0-27.813-6.1717-32.827-6.1717-32.827zm-139.68 543c-4.8386-10.013-6.3708-21.299-8.5174-32.129-1.8106-10.962-3.3535-21.973-4.5722-33.013-7.0612-66.254-8.175-133.02-8.5056-199.58 0.0827-44.048 0.62358-89.124 2.8809-133.16 1.7413-34.606 4.1944-69.396 10.033-103.59 1.292-6.6732 2.6898-13.796 4.7791-20.281 0.89064-2.6173 1.7292-5.3251 3.3104-7.617h-152.29c-19.552 0-35.162 74.674-35.162 265.19 0 190.53 16.79 235.83 22.717 251.53 5.9252 15.704 24.297 12.642 24.297 12.642h141.04zm-155.61-512.12h142.77c1.0789 0 1.9473 0.86838 1.9473 1.9473 0 1.0789-0.86837 1.9472-1.9473 1.9472h-142.77c-1.0789 0-1.9473-0.86825-1.9473-1.9472 0-1.0789 0.86838-1.9473 1.9473-1.9473zm-4.66 14.184h144.88c1.0948 0 1.9765 0.86838 1.9765 1.9473 0 1.0789-0.88171 1.9472-1.9765 1.9472h-144.88c-1.0949 0-1.9765-0.86824-1.9765-1.9472 0-1.0789 0.88158-1.9473 1.9765-1.9473zm-3.0819 13.609h145.33c1.0982 0 1.9824 0.86824 1.9824 1.9472s-0.88411 1.9492-1.9824 1.9492h-145.33c-1.0982 0-1.9825-0.87024-1.9825-1.9492s0.88424-1.9472 1.9825-1.9472zm-4.3203 19.673h147.22c1.1125 0 2.0097 0.89331 2.0097 2.004 0 1.1105-0.89717 2.0058-2.0097 2.0058h-147.22c-1.1125 0-2.0077-0.89531-2.0077-2.0058 0-1.1106 0.89518-2.004 2.0077-2.004zm-2.8457 19.9h148.22c1.1201 0 2.0214 0.89531 2.0214 2.0058 0 1.1106-0.90131 2.004-2.0214 2.004h-148.22c-1.1201 0-2.0214-0.89331-2.0214-2.004 0-1.1105 0.90131-2.0058 2.0214-2.0058zm-1.8164 19.33h149.22c1.1277 0 2.0352 0.89331 2.0352 2.0038 0 1.1106-0.90744 2.0058-2.0352 2.0058h-149.22c-1.1277 0-2.035-0.89518-2.035-2.0058 0-1.1105 0.90731-2.0038 2.035-2.0038zm-1.2186 20.004h148.89c1.1252 0 2.0312 0.89331 2.0312 2.0038 0 1.1106-0.90598 2.0058-2.0312 2.0058h-148.89c-1.1252 0-2.0313-0.89518-2.0313-2.0058 0-1.1105 0.90611-2.0038 2.0313-2.0038zm-0.58985 19.9h147.56c1.1152 0 2.0117 0.89531 2.0117 2.0058 0 1.1106-0.89651 2.0038-2.0117 2.0038h-147.56c-1.115 0-2.0117-0.89317-2.0117-2.0038 0-1.1105 0.89664-2.0058 2.0117-2.0058zm-1.1425 19.673h147.66c1.116 0 2.0137 0.89331 2.0137 2.0038 0 1.1106-0.89771 2.0058-2.0137 2.0058h-147.66c-1.116 0-2.0137-0.89517-2.0137-2.0058 0-1.1105 0.89771-2.0038 2.0137-2.0038zm0 19.786h147.78c1.1166 0 2.0156 0.89331 2.0156 2.0038 0 1.1106-0.89891 2.0058-2.0156 2.0058h-147.78c-1.1168 0-2.0155-0.89518-2.0155-2.0058 0-1.1105 0.89878-2.0038 2.0155-2.0038zm-0.02 19.672h146.33c1.1057 0 1.996 0.89531 1.996 2.0058 0 1.1106-0.89024 2.0038-1.996 2.0038h-146.33c-1.1058 0-1.9961-0.89317-1.9961-2.0038 0-1.1105 0.89024-2.0058 1.9961-2.0058zm-0.11333 19.786h146.44c1.1066 0 1.998 0.89518 1.998 2.0057 0 1.1106-0.89131 2.004-1.998 2.004h-146.44c-1.1066 0-1.998-0.89331-1.998-2.004 0-1.1105 0.89131-2.0057 1.9979-2.0057zm0.112 19.902h146.22c1.105 0 1.9941 0.89331 1.9941 2.0038 0 1.1106-0.88905 2.0058-1.9941 2.0058h-146.22c-1.1049 0-1.9941-0.89518-1.9941-2.0058 0-1.1105 0.88918-2.0038 1.9941-2.0038zm0 19.672h146.33c1.1057 0 1.996 0.89531 1.996 2.0058 0 1.1106-0.89025 2.0038-1.996 2.0038h-146.33c-1.1058 0-1.9961-0.89317-1.9961-2.0038 0-1.1105 0.89024-2.0058 1.9961-2.0058zm0 19.673h146.33c1.1057 0 1.996 0.89331 1.996 2.0038 0 1.1106-0.89025 2.0038-1.996 2.0038h-146.33c-1.1058 0-1.9961-0.89318-1.9961-2.0038 0-1.1105 0.89024-2.0038 1.9961-2.0038zm-1.5821 19.786h147.78c1.1168 0 2.0156 0.89332 2.0156 2.004 0 1.1089-0.89878 2.0038-2.0156 2.0038h-147.78c-1.1166 0-2.0155-0.89491-2.0155-2.0038 0-1.1106 0.89891-2.004 2.0155-2.004zm2.8242 19.672h145.1c1.0965 0 1.9804 0.89531 1.9804 2.0058 0 1.1106-0.88384 2.004-1.9804 2.004h-145.1c-1.0965 0-1.9804-0.89331-1.9804-2.004 0-1.1105 0.88384-2.0058 1.9804-2.0058zm-0.11333 19.786h145.21c1.0974 0 1.9824 0.89518 1.9824 2.0058 0 1.1105-0.88491 2.0038-1.9824 2.0038h-145.21c-1.0974 0-1.9805-0.89331-1.9805-2.0038 0-1.1106 0.88304-2.0058 1.9805-2.0058zm2.0506 19.786h144.66c1.0932 0 1.9726 0.89524 1.9726 2.0058 0 1.1106-0.87945 2.0038-1.9726 2.0038h-144.66c-1.0932 0-1.9726-0.89328-1.9726-2.0038 0-1.1105 0.87944-2.0058 1.9726-2.0058zm0.02133 19.786h146.22c1.105 0 1.9942 0.89524 1.9942 2.0058 0 1.1106-0.88918 2.0038-1.9942 2.0038h-146.22c-1.105 0-1.9942-0.89328-1.9942-2.0038 0-1.1105 0.88918-2.0058 1.9942-2.0058zm0 19.673h146.33c1.1058 0 1.9961 0.89328 1.9961 2.0038 0 1.1105-0.89024 2.0038-1.9961 2.0038h-146.33c-1.1058 0-1.9961-0.89328-1.9961-2.0038 0-1.1105 0.89024-2.0038 1.9961-2.0038zm2.5058 19.786h145.66c1.1008 0 1.9864 0.89329 1.9864 2.0038s-0.88558 2.0038-1.9864 2.0038h-145.66c-1.1008 0-1.9862-0.89329-1.9862-2.0038s0.88544-2.0038 1.9862-2.0038zm0.13333 19.786h147c1.1109 0 2.0058 0.89329 2.0058 2.0038s-0.89491 2.0038-2.0058 2.0038h-147c-1.1108 0-2.0038-0.89329-2.0038-2.0038s0.89304-2.0038 2.0038-2.0038zm1.8496 19.9h148.33c1.1209 0 2.0234 0.89524 2.0234 2.0058 0 1.1106-0.90251 2.0038-2.0234 2.0038h-148.33c-1.1209 0-2.0234-0.89328-2.0234-2.0038 0-1.1105 0.90251-2.0058 2.0234-2.0058zm4.205 19.444h146.44c1.1066 0 1.9961 0.89524 1.9961 2.0058 0 1.1106-0.88944 2.0038-1.9961 2.0038h-146.44c-1.1066 0-1.998-0.89328-1.998-2.0038 0-1.1105 0.89131-2.0058 1.998-2.0058zm3.6426 15.213h145.22c1.0974 0 1.9805 0.89329 1.9805 2.0038s-0.88305 2.0058-1.9805 2.0058h-145.22c-1.0974 0-1.9805-0.89525-1.9805-2.0058s0.88304-2.0038 1.9805-2.0038zm5.3436 13.84h142.77c1.0789 0 1.9473 0.89328 1.9473 2.0038 0 1.1106-0.86837 2.0058-1.9473 2.0058h-142.77c-1.0789 0-1.9473-0.89526-1.9473-2.0058 0-1.1106 0.86838-2.0038 1.9473-2.0038zm5.6697 9.4919h139.21c1.052 0 1.8984 0.89523 1.8984 2.0058s-0.84638 2.0038-1.8984 2.0038h-139.21c-1.052 0-1.8984-0.89329-1.8984-2.0038s0.84638-2.0058 1.8984-2.0058z"
                    clipPath="url(#clipPath99)"
                    fill="#363e4b"
                    strokeWidth="1.3333"
                  ></path>
                  <path
                    d="m940.79 0.068278c-28.023 0.10933-53.54 0.32813-53.54 0.32813s-12.978-1.4645-34.218 4.4354c-21.238 5.8985-221.23 45.426-442.47 232.45-10.422 28.121-14.356 130.38-14.356 241.29 0 110.91 3.9327 213.17 14.356 241.29 221.23 187.02 421.23 226.54 442.47 232.45 21.239 5.8985 34.218 4.4335 34.218 4.4335s102.06 0.87465 122.12 0c20.058-0.87331 27.727-18.002 57.225-18.593 19.469-0.58932 30.678 1.7709 46.607 8.8494 15.929 7.0798 34.218 4.7187 34.218 4.7187l234.21-0.58788s24.778 2.3599 39.527-5.3104c16.52-10.029 47.786-8.2585 64.894 0 17.109 8.2598 26.549 7.078 26.549 7.078h284.35c11.8 0 27.729-10.619 44.247-10.619 16.52 0 25.958 3.5395 33.038 6.4901 7.0798 2.9493 15.928 3.541 15.928 3.541s271.38-1.1796 287.9-1.1796c16.518 0 18.878-12.98 38.347-12.98 19.469 0 30.087 10.62 45.427 15.34 15.338 4.7186 32.448 2.5566 32.448 2.5566s238.34 1.5733 260.37 0c22.025-1.5733 51.916-3e-3 82.594-119.57 30.678-119.57 29.891-357.91 29.891-357.91s0.7859-238.34-29.891-357.91c-30.678-119.57-60.569-117.99-82.594-119.57-22.025-1.5733-260.37 0-260.37 0s-17.11-2.1613-32.448 2.5586c-15.34 4.7199-25.958 15.337-45.427 15.337-19.469 0-21.829-12.978-38.347-12.978-16.518 0-287.9-1.1797-287.9-1.1797s-8.8475 0.58839-15.928 3.539c-7.0798 2.9493-16.518 6.4901-33.038 6.4901-16.518 0-32.447-10.621-44.247-10.621h-284.35s-9.4394-1.18-26.549 7.0798c-17.109 8.2598-48.375 10.029-64.894 0-14.749-7.6691-39.527-5.3084-39.527-5.3084l-234.21-0.58985s-18.289-2.3611-34.218 4.7187c-15.929 7.0798-27.138 9.44-46.607 8.8494-29.498-0.58932-37.167-17.718-57.225-18.593-10.029-0.43732-40.559-0.43746-68.582-0.32813zm-131.56 145.88h171.38c102.46 0 124.23 50.789 124.23 133.3v135.12c0 82.513-33.555 136.01-117.88 136.01h-57.129v270.22h-120.6zm343.64 0h190.42c73.449 0 110.63 40.81 110.63 112.44v107.91c0 54.407-30.831 81.609-53.503 90.683 19.948 7.2553 51.688 29.013 51.688 79.791v229.41c0 29.022 5.4372 41.714 9.9744 49.873v4.5331h-120.61c-5.4358-7.2558-10.877-21.757-10.877-51.683v-196.78c0-30.83-7.2573-39.895-31.743-39.895h-25.389v288.35h-120.6zm525.88 0h148.72l46.247 340.95 46.246-340.95h138.73v674.65h-108.81v-398.98l-59.848 398.98h-45.339l-60.756-398.98v398.98h-105.19zm434.31 0h252.07v118.79h-131.48v146.9h103.37v121.5h-103.37v165.94h137.84v121.5h-258.43zm-609.3 0h120.6v674.65h-120.6zm-573.93 104.28v190.44h22.671c27.203 0 30.831-17.236 30.831-38.088v-112.45c0-23.575-3.6279-39.894-30.831-39.894zm343.64 0v170.48h23.575c23.581 0 33.556-9.0636 33.556-40.81v-91.579c0-29.022-5.4422-38.084-29.927-38.084z"
                    clipPath="url(#clipPath57)"
                    fill="#363e4b"
                    strokeWidth="1.3333"
                  ></path>
                </svg>