<svg
                  version="1.1"
                  viewBox="0 0 2046.7 364"
                  xmlns="http://www.w3.org/2000/svg"
                  xmlnsXlink="http://www.w3.org/1999/xlink"
                >
                  <title>socios.com</title>
                  <g strokeWidth="1.3333">
                    <path
                      d="m140.73 359.32c-46.529-24.684-84.738-60.376-109.51-102.3-8.49-14.367-9.2975-16.518-7.1667-19.086 3.3947-4.0904 7.817-1.7572 33.085 17.456 46.972 35.716 79.982 55.816 97.781 59.538 7.554 1.5797 7.6315 1.5633 18.667-3.9491 21.445-10.713 56.336-40.613 63.003-53.993 5.3639-10.764 4.1778-20.25-3.8476-30.772-1.8674-2.4482-2.9481-4.8985-2.4016-5.445 0.54649-0.54649 0.37171-0.79363-0.38841-0.54917-1.9161 0.61617-81.475-54.4-87.556-60.546-7.6063-7.6879-8.391-18.407-2.0297-27.725 4.6314-6.7841 10.85-9.5277 20.365-8.9853l8.0642 0.45963 56.561 39.287c56.124 38.984 66.787 47.353 71.46 56.085 3.6278 6.779 3.2937 20.182-0.69458 27.869-6.1522 11.857-26.127 38.311-28.416 37.634-0.6806-0.20149-0.90348 0.17402-0.49528 0.83448 2.032 3.2878-38.211 38.162-68.621 59.466-22.174 15.534-30.257 19.399-40.576 19.399-7.1084 0-9.8683-0.7476-17.285-4.6822zm363.96-44.112c-12.02-2.6853-27.788-8.7873-35.745-13.834-5.7-3.6148-6.2702-4.442-6.2112-9.0096 0.0509-3.9431 1.7237-7.3332 7.7447-15.696 9.1846-12.757 11.45-13.512 22.678-7.5551 21.096 11.191 45.404 11.774 52.765 1.266 6.6167-9.4467-0.24188-15.611-28.586-25.69-33.805-12.022-46.071-22.64-49.337-42.711-4.2915-26.368 13.348-49.307 44.11-57.36 13.998-3.6646 36.926-2.1911 53.893 3.4637 13.688 4.5617 20.691 9.3627 20.642 14.151-0.0137 1.3397-3.6486 7.9859-8.0775 14.769-7.4844 11.463-8.3648 12.333-12.48 12.333-2.4354 0-7.9506-1.6249-12.256-3.611-6.2535-2.8847-9.839-3.6206-17.828-3.6587-11.129-0.0532-16.195 1.8214-20.445 7.5645-2.2282 3.0112-2.429 4.1895-1.1806 6.9295 2.1917 4.8103 6.0115 6.8684 27.219 14.665 10.49 3.8568 21.729 8.3757 24.975 10.042 8.0473 4.1306 19.416 15.15 22.763 22.065 6.013 12.421 6.0352 30.206 0.0532 42.563-5.5388 11.442-20.697 23.018-36.99 28.251-9.4904 3.0478-36.161 3.6414-47.708 1.0618zm169.99-0.0315c-22.06-4.8201-43.816-20.196-55.281-39.07-2.4934-4.1046-6.2033-12.257-8.2442-18.117-3.3221-9.5381-3.7108-12.469-3.7108-27.987 0-15.518 0.38861-18.449 3.7108-27.987 9.4473-27.124 28.903-46.357 56.181-55.538 8.1625-2.7473 11.842-3.1404 29.333-3.1332 18.339 8e-3 20.812 0.30419 29.779 3.5723 14.052 5.121 23.473 11.11 34.279 21.791 17.447 17.246 25.53 39.154 24.265 65.77-1.1391 23.97-8.7081 41.233-25.336 57.784-10.632 10.583-28.138 19.982-42.987 23.081-11.567 2.4135-30.529 2.3389-41.989-0.1652zm40.433-45.007c32.511-15.906 32.248-63.926-0.4444-81.022-5.074-2.6534-7.9548-3.1377-18.667-3.1377-14.189 0-19.55 1.9791-29.354 10.836-15.941 14.402-17.908 44.043-4.0832 61.533 9.2199 11.664 20.23 16.548 35.667 15.821 7.0062-0.33 11.52-1.4078 16.881-4.0304zm152.22 45.193c-26.175-5.7623-47.291-21.702-59.282-44.751-6.8453-13.157-9.3402-23.991-9.3647-40.662-0.0236-16.03 2.1822-25.563 9.243-39.947 9.7494-19.861 26.899-34.645 49.247-42.455 14.72-5.144 37.909-6.441 52.824-2.9544 12.98 3.0342 29.245 11.273 38.333 19.418 6.3318 5.6744 7.6667 7.6203 7.6667 11.176 0 5.1719-0.55158 5.8769-13.484 17.234-12.455 10.938-15.286 11.346-24.704 3.5555-22.972-19.002-55.692-12.149-68.763 14.401-3.8673 7.8556-4.3779 10.159-4.3448 19.596 0.0572 16.292 6.8508 29.352 19.471 37.429 7.6581 4.9017 19.113 7.6917 28.396 6.9158 10.696-0.89403 18.081-4.0431 27.832-11.869 4.4192-3.5466 9.3326-6.4484 10.919-6.4484 2.7314 0 26.724 16.888 28.934 20.366 2.8343 4.4614 0.96378 8.3777-8.2149 17.2-11.172 10.738-26.439 18.701-41.65 21.725-12.352 2.4553-32.075 2.4872-43.056 0.0696zm119.33-0.69353c-2.6087-2.6088-2.6667-4.4444-2.6667-84.519 0-78.605 0.10106-81.977 2.5489-85 2.4539-3.0304 3.2286-3.1477 20.784-3.1477 17.842 0 18.294 0.072 20.939 3.3333 2.6625 3.2836 2.6951 4.5554 2.179 85.147l-0.5239 81.814-3.1112 2.5193c-2.6909 2.179-5.4329 2.5193-20.297 2.5193-15.408 0-17.462-0.27585-19.852-2.6667zm134.67 0.59864c-29.123-6.2369-55.102-29.682-64.193-57.932-3.9792-12.365-4.833-33.925-1.8706-47.241 6.5047-29.237 27.362-52.379 56.951-63.187 9.0718-3.3138 11.275-3.568 30.446-3.5131 19.791 0.0567 21.125 0.23348 31.477 4.1709 26.765 10.18 44.118 27.884 53.371 54.449 3.3222 9.5381 3.7108 12.469 3.7108 27.987s-0.3886 18.449-3.7108 27.987c-8.3537 23.984-23.388 40.564-46.658 51.453-16.236 7.5978-40.264 9.9492-59.523 5.8248zm40.529-45.14c8.1577-3.9912 15.19-11.341 19.798-20.692 2.5125-5.0985 3.0064-8.2913 3.0064-19.434 0-11.881-0.4037-14.155-3.7064-20.881-4.0716-8.2911-11.078-15.353-19.9-20.058-4.8134-2.567-7.7468-3.0541-18.393-3.0541-10.712 0-13.593 0.48423-18.667 3.1377-35.529 18.58-31.892 71.367 5.7656 83.682 8.751 2.8618 23.214 1.6444 32.097-2.7016zm120.8 45.205c-11.058-2.2358-19.931-5.2823-30-10.3-9.9987-4.9828-14-8.6001-14-12.656 0-2.9646 10.572-20.089 15.356-24.873 2.9502-2.9502 8.3957-2.7158 13.827 0.59515 12.676 7.7276 31.864 11.865 42.83 9.234 8.2237-1.9728 13.321-6.8353 13.321-12.707 0-7.0593-6.1471-11.166-29.789-19.899-28.931-10.688-38.867-17.324-45.997-30.723-3.1379-5.8968-3.5425-8.1294-3.5036-19.333 0.039-11.285 0.4689-13.515 3.9397-20.449 6.942-13.868 21.814-24.85 39.963-29.51 18.307-4.7009 49.507-0.83791 66.414 8.223 6.1528 3.2973 7.0179 4.2849 7.3617 8.4031 0.3199 3.8318-0.9942 6.6942-7.3456 16-7.6184 11.162-7.8154 11.331-13.056 11.147-2.9266-0.10253-9.8211-1.8198-15.321-3.8163-7.9575-2.8886-11.522-3.4931-17.45-2.9597-12.923 1.1626-20.012 6.9554-18.054 14.754 1.1474 4.5717 6.8419 7.7391 25.391 14.123 29.948 10.307 42.658 18.783 49.713 33.148 3.3337 6.7887 3.7338 9.0322 3.7338 20.937 0 16.134-2.6841 22.805-13.569 33.722-15.809 15.856-45.456 22.666-73.764 16.942zm117.23-1.8946c-5.1085-5.1084-5.2752-11.594-0.4456-17.334 2.8636-3.4032 4.4236-4.1023 9.1535-4.1023 10.515 0 16.173 8.365 12.157 17.976-3.5314 8.4521-14.118 10.208-20.865 3.4603zm106.05 1.9328c-29.192-6.3549-52.398-27.814-62.762-58.035-3.9762-11.595-3.6015-40.034 0.7004-53.168 8.5049-25.966 30.161-46.695 57.446-54.987 12.661-3.8478 33.574-4.1208 46.667-0.60912 16.697 4.4782 40 19.888 40 26.451 0 2.7905-7.9616 10.298-10.929 10.307-1.2445 4e-3 -6.1448-2.9321-10.889-6.5233-30.041-22.738-71.273-17.132-93.606 12.726-32.352 43.253-1.3237 107.29 51.899 107.1 18.368-0.0628 30.63-5.0001 44.866-18.065 5.1359-4.7131 9.9145-8.5694 10.619-8.5694 2.6198 0 10.708 8.3746 10.708 11.087 0 4.0596-16.371 19.421-26.248 24.629-16.782 8.8489-39.384 11.807-58.47 7.6524zm162.21-0.76058c-21.156-5.5404-40.164-20.856-50.398-40.608-7.9603-15.363-10.224-25.014-10.164-43.333 0.059-17.866 3.4932-30.749 12.037-45.145 10.484-17.665 31.084-32.865 51.037-37.659 9.3959-2.2576 27.912-2.2615 37.333-8e-3 28.664 6.8559 52.931 31.38 60.835 61.479 3.0092 11.46 3.0135 32.513 0.013 44-12.151 46.453-55.817 73.026-100.69 61.275zm40.172-18.629c25.638-9.6613 41.508-31.648 43.29-59.979 0.8913-14.166-1.0485-23.833-7.2945-36.35-12.23-24.508-39.645-39.222-64.477-34.604-30.878 5.7423-53.113 32.73-53.517 64.954-0.2992 23.874 9.3811 44.254 27.277 57.428 7.3043 5.3771 19.533 10.41 28.394 11.685 6.6019 0.95048 19.588-0.59607 26.327-3.1352zm88.506 19.305c-0.4578-1.1926-0.8322-37.176-0.8322-79.964 0-84.922-0.2692-81.986 7.5163-81.986 6.5433 0 8.2052 2.0478 9.1999 11.336l0.9308 8.6907 5.0104-4.5266c30.445-27.505 81.71-24.553 101.51 5.8449l2.1629 3.3214 6.3248-7.0342c10.659-11.855 23.638-17.974 43.159-20.347 38.887-4.7282 64.826 12.268 72.716 47.645 1.7715 7.9426 2.1404 18.891 2.1404 63.524 0 60.622 0.9824 55.546-10.75 55.546-5.6846 0-6.6201-0.38925-7.2093-3-0.3723-1.65-0.8565-26.4-1.0759-55-0.3813-49.702-0.5306-52.394-3.3792-60.926-4.0612-12.164-13.425-22.489-23.989-26.45-9.4033-3.5264-24.645-3.8646-35.248-0.7822-14.327 4.165-25.34 16.459-29.822 33.292-1.394 5.2354-1.832 18.843-1.844 57.287-0.013 32.176-0.5153 51.354-1.3961 53-1.0963 2.0484-2.8244 2.579-8.4 2.579-3.8608 0-7.7397-0.72-8.6197-1.6-1.1876-1.1877-1.6051-14.674-1.6198-52.333-0.016-40.808-0.4185-52.425-2.058-59.382-4.7418-20.119-17.248-32.019-36.427-34.66-18.138-2.4979-38.237 4.7174-52.292 18.772l-7.8424 7.8424-0.3469 60.347-0.347 60.347-8.1678 0.39266c-6.5534 0.31504-8.3324-0.036-9-1.7757zm-1680.8-74.91c-4.0781-1.5267-86.08-61.301-93.661-68.273-9.1208-8.3881-14.952-16.393-17.788-24.42-3.0174-8.5395-4.8166-44.638-3.7874-75.989 0.49906-15.203 1.3124-27.391 1.8074-27.085 0.49498 0.30592 0.86895-2.6601 0.83104-6.5911-0.076634-7.9471 2.4964-12.631 9.5946-17.466 6.5912-4.4894 52.701-13.763 90.336-18.168 22.645-2.6505 93.83-2.2188 118 0.71567 35.386 4.296 74.75 11.484 86.088 15.719 7.8514 2.9329 12.87 7.6924 15.992 15.166 4.3934 10.517 5.5663 80.517 1.8387 109.74-2.1023 16.48-6.8378 21.749-17.07 18.994-5.7821-1.557-20.737-12.104-22.904-16.154-1.0896-2.0359-1.2443-11.419-0.54966-33.339 1.0773-33.995 0.41268-38.948-6.3234-47.12-5.3527-6.4937-10.985-9.1125-28.404-13.207-52.488-12.336-130.33-12.353-178-0.037569-22.891 5.9142-28.215 12.489-29.108 35.947-0.80456 21.133 5.8837 42.609 16.325 52.418 1.8525 1.7403 2.9905 3.827 2.5288 4.6371-0.46164 0.81007-0.37172 1.0514 0.19982 0.53635s1.7951-0.21508 2.719 0.66666c0.92391 0.88175 19.093 14.073 40.377 29.314 42.984 30.781 43.737 31.561 42.684 44.262-0.71556 8.6286-4.5013 14.208-12.155 17.913-5.4669 2.6465-14.997 3.5337-19.57 1.8218zm-77.333-111.45c0-0.22281-2.25-2.4728-5-5l-5-4.5949 4.5949 5c4.2768 4.6539 5.4051 5.613 5.4051 4.5949z"
                      fill="#363E4B"
                    ></path>
                  </g>
                </svg>