<svg
                  xmlns="http://www.w3.org/2000/svg"
                  viewBox="0 0 203.8 43.6"
                >
                  <title>StatSports logo</title>
                  <path
                    d="M55.4-1.6c.4.8.8 1.6 1.3 2.4 3.5 6.5 7 13 10.6 19.4.1.1.1.3.2.5h-4.1c-.3 0-.5-.1-.6-.4-2.5-4.3-4.8-8.7-7.2-13.1-.1-.1-.1-.2-.2-.4-.4.7-.8 1.4-1.1 2.1-2.1 3.8-4.1 7.7-6.2 11.5-.1.3-.3.4-.6.4h-4.1c.1-.2.1-.3.2-.5L55.3-1.3c0-.1 0-.2.1-.3-.1 0 0 0 0 0zm147.7 6.5c0-.1-.1-.1-.1-.2-.4-2.2-2.4-3.5-4.6-3.1-2.1.3-3.5 2.2-3.3 4.3.2 1.7 1.5 3.1 3.1 3.5 1.8.3 3.6-.5 4.4-2 .2-.4.3-.9.5-1.3V4.9zm-4-2.6c1.7 0 3 1.4 3 3.1 0 1.7-1.3 3.1-3 3.1s-3-1.4-3-3.1c0-1.7 1.3-3.1 3-3.1zM75 42.1c2.6-3.7 5.1-7.3 7.7-11 .5-.7 1.2-1.2 2-1.4.4-.1.9-.1 1.4-.1h105.3v-4h-106c-2.6.1-4.6 1.2-6.1 3.4-1.2 1.8-2.5 3.7-3.8 5.5-.1.1-.2.2-.3.4-.1-.2-.2-.3-.2-.4-2-3.6-3.9-7.2-5.9-10.9-.2-.3-.3-.4-.7-.4H64.3c3.5 6.4 7 12.8 10.5 19.3 0-.2.1-.3.2-.4zM1.2 17.3c.2 1.8 1.1 2.9 2.9 3.3 1 .2 1.9.3 2.9.3 2.7 0 5.3.1 8 0 1.5 0 3.1-.1 4.6-.3 2.1-.3 3.1-1.3 3.4-3.4.2-1.3.2-2.7-.1-4-.3-1.4-1.1-2.4-2.5-2.8-.3-.1-.6-.2-.9-.2-1.5-.2-3.1-.4-4.6-.4-2-.1-4 0-6-.1-.5 0-1.1-.1-1.6-.2s-.7-.4-.8-.9c-.1-.8.2-1.4 1-1.6.3-.1.6-.1.9-.1h6.3c.5 0 .9.1 1.4.2.6 0 .9.4.9 1v.5h5.3V7.2c-.2-2.5-1.2-3.6-3.6-4.1-.7-.1-1.4-.2-2.1-.2H7.3c-1.1 0-2.4.1-3.5.6-1.3.5-2.2 1.3-2.5 2.8-.2 1.4-.2 2.8-.1 4.2.2 1.6 1.1 2.6 2.7 2.9.9.2 1.8.4 2.8.4 2.4.1 4.7.1 7.1.1 1 0 2 .1 2.9.3.6.1.9.5.9 1.1 0 .8-.3 1.3-.9 1.5-.3.1-.7.2-1.1.2H7.9c-.9-.1-1.3-.5-1.4-1.4v-.5H1.2c0 .7-.1 1.5 0 2.2zm.4 12.3h35c1.5 0 2.9-.2 4.3-.8 2.5-1 4.2-2.9 5.5-5.3 0-.1.1-.2.1-.3H42c-.1 0-.2.1-.3.2-1.4 1.6-3.2 2.2-5.2 2.2H1.2v4h.4zm72.5-8.9h5.4V7.4H87V3H66.7v4.4h7.5c-.1 4.5-.1 8.9-.1 13.3zM44.3 3.1H24v4.4h7.5v13.2h5.3V8c0-.4.1-.5.5-.5h7V3.1zM88.8 17c.2 1.9 1.1 3.1 3 3.6.9.2 1.8.3 2.7.3 2.6 0 5.2.1 7.8 0 1.1 0 2.2-.1 3.3-.3 1.8-.4 2.9-1.5 3.1-3.3.1-.9.1-1.8.1-2.7-.1-1.8-1.1-2.9-2.8-3.4-1-.3-2-.4-3.1-.5-2.8-.1-5.5 0-8.3 0-.7 0-1.4-.1-2.1-.3-1-.2-1.4-.8-1.5-1.8V7.3c.1-1.3.6-1.9 1.9-2.2.5-.1 1-.1 1.6-.2 1.9-.1 3.9-.1 5.8-.1 1.4 0 2.8.1 4.1.3 1.2.2 1.6.8 1.7 2 0 .3.1.7.1 1h2.2V7c0-1.8-.8-3-2.5-3.6-1.1-.4-2.3-.6-3.5-.6-2.4 0-4.7-.1-7.1 0-1 0-2.1.1-3.1.3-1.7.3-2.9 1.3-3.2 3.1-.1.9-.2 1.8-.1 2.6.2 2.2 1.2 3.2 3.3 3.6 1.6.2 3.2.3 4.7.4 2.1.1 4.3 0 6.4 0 .6 0 1.1.1 1.7.2.9.2 1.5.7 1.6 1.7.1.6.1 1.2 0 1.8-.1 1.1-.8 1.8-1.9 2.1-.6.1-1.1.2-1.7.2h-8.3c-.4 0-.8 0-1.2-.1-1.8-.2-2.4-1-2.4-2.8v-1h-2.2c-.1.9-.1 1.5-.1 2.1zm26.9 3.8c.4.1.8.1 1.2.1h4.1c.8 0 1.6 0 2.4-.2 2.2-.3 3.4-1.4 3.6-3.7.2-1.7.1-3.4 0-5.1 0-.8-.4-1.5-.8-2.1-.9-1.1-2.1-1.6-3.5-1.7-1.8-.1-3.5-.1-5.3-.1-1.6 0-3 .5-4 1.9h-.1V8.2h-1.9V24h2.1v-4.8c.5 1 1.3 1.5 2.2 1.6zm.6-1.7c-1.6-.2-2.5-1-2.7-2.6-.1-1.3-.1-2.5 0-3.8.2-1.6 1-2.6 2.6-2.7 2.1-.2 4.3-.2 6.4 0 1.6.1 2.3 1 2.4 2.8.1 1.3.1 2.6 0 3.9-.1 1.6-.9 2.3-2.4 2.6-.2 0-.3.1-.5.1h-2.6v.1c-1.1-.3-2.2-.3-3.2-.4zm74.5-8.1c0-1.1-.6-2-1.7-2.3-.7-.2-1.3-.4-2-.4-2.3-.1-4.6-.1-6.9 0-.9 0-1.8.3-2.6.6-1 .3-1.5 1.1-1.5 2.2 0 .6 0 1.3.1 1.9.1 1.2.8 1.9 1.9 2.2.6.1 1.1.2 1.7.2h6.6c.6 0 1.3.1 1.9.2.5.1.8.5.9 1 .4 1.6-.3 2.5-1.9 2.6-2.3 0-4.6.1-6.9.1-.3 0-.6 0-.9-.1-1.2-.2-1.8-.9-1.8-2.1v-.6h-2c0 .5 0 1 .1 1.5.2 1.5 1 2.4 2.4 2.7.7.1 1.4.2 2.1.2h4.9c1 0 2-.1 2.9-.2 1.7-.2 2.7-1.1 3-2.6.1-.6.1-1.2 0-1.9-.2-1.4-1-2.2-2.4-2.4-.6-.1-1.2-.2-1.8-.2h-6.7c-.4 0-.9-.1-1.3-.1-.5-.1-.9-.4-1-1-.1-.5 0-1 0-1.5 0-.4.3-.7.7-.9.4-.1.8-.2 1.1-.2 2.1 0 4.1-.1 6.2-.1.5 0 .9.1 1.3.2.8.2 1.1.5 1.2 1.3 0 .2.1.4.1.6h1.9c.4-.3.4-.6.4-.9zm-53.7 9.9h1.5c1.1-.1 2.2-.1 3.3-.3 2.2-.4 3.4-1.9 3.5-4.1.1-1.4.1-2.7 0-4.1-.1-1.8-1.2-3.2-2.9-3.8-.7-.2-1.5-.4-2.2-.4-1.7-.1-3.3-.1-5-.1-1 0-2.1.2-3.1.4-1.8.4-3 1.6-3.2 3.5-.2 1.7-.2 3.5 0 5.2.2 1.4 1 2.4 2.2 3 .5.2 1 .4 1.5.5 1.5.1 3 .2 4.4.2 0 .1 0 .1 0 0zm-3.4-1.8c-.4 0-.7-.2-1.1-.3-.9-.3-1.4-1-1.5-1.9-.3-1.6-.3-3.2 0-4.8.2-1.4 1.1-2.2 2.8-2.3 1.8-.1 3.5-.1 5.3-.1.6 0 1.2 0 1.7.1 1.6.3 2.4 1.1 2.5 2.8.1 1.2.1 2.4 0 3.5-.1 1.8-.9 2.6-2.7 2.9-.2 0-.4.1-.6.1h-2.9V19c-1.2.2-2.3.2-3.5.1zm30.4-8.5v6.6c0 2 1.1 3.3 3 3.6 1.6.3 3.3.3 4.9 0 1.1-.2 2-.7 2.4-1.8.4-1.2.3-2.5.3-3.8h-1.6c0 .8-.1 1.6-.1 2.4-.1.8-.6 1.4-1.4 1.5-1.1.1-2.2.1-3.3.1-1.2-.1-1.8-.7-2-2 0-.3-.1-.6-.1-.9V10h8.2V8.3h-6c-.7 0-1.4 0-2.1-.1V5.4h-2.1v2.2c0 .7 0 .7-.7.7h-2V10h2.7c-.1.3-.1.4-.1.6zm-3.4 1.2c-.2-2.1-1.1-3.2-3.2-3.5-1.4-.2-2.8-.2-4.2-.2-1.4 0-2.6.5-3.4 1.8l-.1.1V8.4h-1.9v12.4h2V13c0-1.7 1-2.9 2.7-3 1.3-.1 2.5-.1 3.8 0 1.7.2 2.2.7 2.3 2.4 0 .5.1 1 .1 1.5h1.9c0-.7.1-1.4 0-2.1zm36.9-4.4h.9V5.9c.9-.1 1.1 0 1.3.8 0 .2.1.3.1.5.1.1.2.2.3.2h.7c-.3-.7-.2-1.5-.9-2 .1-.1.1-.1.2-.1.4-.2.6-.5.6-.9 0-.5-.3-.8-.8-.9-.8-.2-1.6-.1-2.4 0v3.9zm1-3.3c.4-.1.9-.2 1.2.2.1.1.1.4 0 .6-.3.4-.8.3-1.2.3V4.1z"
                    fill="#363E4B"
                  ></path>
                </svg>